<mxfile host="Electron" agent="Mozilla/5.0 (Macintosh; Intel Mac OS X 10_15_7) AppleWebKit/537.36 (KHTML, like Gecko) draw.io/27.0.9 Chrome/134.0.6998.205 Electron/35.4.0 Safari/537.36" version="27.0.9">
  <diagram name="platform" id="V1U5ahBtT8CTUrfcqf0h">
    <mxGraphModel dx="676" dy="446" grid="1" gridSize="10" guides="1" tooltips="1" connect="1" arrows="1" fold="1" page="1" pageScale="1" pageWidth="850" pageHeight="1100" math="0" shadow="0">
      <root>
        <mxCell id="5h32e7U5oIckj3QQvWM9-0" />
        <mxCell id="5h32e7U5oIckj3QQvWM9-1" parent="5h32e7U5oIckj3QQvWM9-0" />
        <mxCell id="5h32e7U5oIckj3QQvWM9-4" value="mw-topo:Node" style="rounded=0;whiteSpace=wrap;html=1;snapToPoint=1;points=[[0.1,0],[0.2,0],[0.3,0],[0.4,0],[0.5,0],[0.6,0],[0.7,0],[0.8,0],[0.9,0],[0,0.1],[0,0.3],[0,0.5],[0,0.7],[0,0.9],[0.1,1],[0.2,1],[0.3,1],[0.4,1],[0.5,1],[0.6,1],[0.7,1],[0.8,1],[0.9,1],[1,0.1],[1,0.3],[1,0.5],[1,0.7],[1,0.9]];fillColor=#d5e8d4;strokeColor=#000000;fontSize=14;align=center;verticalAlign=middle;fontFamily=Helvetica;" parent="5h32e7U5oIckj3QQvWM9-1" vertex="1">
          <mxGeometry x="259" y="830" width="170" height="30" as="geometry" />
        </mxCell>
        <mxCell id="5h32e7U5oIckj3QQvWM9-10" value="mw-pm:platform" style="edgeStyle=orthogonalEdgeStyle;rounded=0;orthogonalLoop=1;jettySize=auto;html=1;entryX=0;entryY=0.5;entryDx=0;entryDy=0;fontSize=14;exitX=1;exitY=0.5;exitDx=0;exitDy=0;" parent="5h32e7U5oIckj3QQvWM9-1" source="5h32e7U5oIckj3QQvWM9-42" target="5h32e7U5oIckj3QQvWM9-28" edge="1">
          <mxGeometry x="0.0424" y="5" relative="1" as="geometry">
            <Array as="points">
              <mxPoint x="490" y="655" />
              <mxPoint x="490" y="585" />
            </Array>
            <mxPoint as="offset" />
            <mxPoint x="470" y="680" as="sourcePoint" />
          </mxGeometry>
        </mxCell>
        <mxCell id="5h32e7U5oIckj3QQvWM9-11" value="mw-pm:operatingSystem" style="edgeStyle=orthogonalEdgeStyle;rounded=0;orthogonalLoop=1;jettySize=auto;html=1;entryX=0;entryY=0.5;entryDx=0;entryDy=0;fontSize=14;exitX=1;exitY=0.5;exitDx=0;exitDy=0;" parent="5h32e7U5oIckj3QQvWM9-1" source="5h32e7U5oIckj3QQvWM9-42" target="5h32e7U5oIckj3QQvWM9-39" edge="1">
          <mxGeometry x="0.1149" y="10" relative="1" as="geometry">
            <Array as="points">
              <mxPoint x="490" y="655" />
              <mxPoint x="490" y="745" />
            </Array>
            <mxPoint x="-10" y="10" as="offset" />
            <mxPoint x="470" y="680" as="sourcePoint" />
          </mxGeometry>
        </mxCell>
        <mxCell id="5h32e7U5oIckj3QQvWM9-13" value="" style="endArrow=block;html=1;fontColor=#000000;endFill=0;endSize=8;arcSize=0;rounded=0;fontFamily=Helvetica;entryX=0.5;entryY=0;entryDx=0;entryDy=0;exitX=0.5;exitY=1;exitDx=0;exitDy=0;fontSize=13;" parent="5h32e7U5oIckj3QQvWM9-1" source="5h32e7U5oIckj3QQvWM9-15" target="5h32e7U5oIckj3QQvWM9-4" edge="1">
          <mxGeometry width="50" height="50" relative="1" as="geometry">
            <mxPoint x="51" y="470" as="sourcePoint" />
            <mxPoint x="333.0050000000001" y="520" as="targetPoint" />
          </mxGeometry>
        </mxCell>
        <mxCell id="5h32e7U5oIckj3QQvWM9-15" value="&lt;div&gt;mw-pm:hostname: xsd:string&lt;/div&gt;" style="rounded=0;whiteSpace=wrap;html=1;snapToPoint=1;points=[[0.1,0],[0.2,0],[0.3,0],[0.4,0],[0.5,0],[0.6,0],[0.7,0],[0.8,0],[0.9,0],[0,0.1],[0,0.3],[0,0.5],[0,0.7],[0,0.9],[0.1,1],[0.2,1],[0.3,1],[0.4,1],[0.5,1],[0.6,1],[0.7,1],[0.8,1],[0.9,1],[1,0.1],[1,0.3],[1,0.5],[1,0.7],[1,0.9]];align=left;spacingLeft=10;fontSize=14;" parent="5h32e7U5oIckj3QQvWM9-1" vertex="1">
          <mxGeometry x="243" y="670" width="202" height="30" as="geometry" />
        </mxCell>
        <mxCell id="5h32e7U5oIckj3QQvWM9-26" value="mw-pm:vendorName: xsd:string" style="rounded=0;whiteSpace=wrap;html=1;snapToPoint=1;points=[[0.1,0],[0.2,0],[0.3,0],[0.4,0],[0.5,0],[0.6,0],[0.7,0],[0.8,0],[0.9,0],[0,0.1],[0,0.3],[0,0.5],[0,0.7],[0,0.9],[0.1,1],[0.2,1],[0.3,1],[0.4,1],[0.5,1],[0.6,1],[0.7,1],[0.8,1],[0.9,1],[1,0.1],[1,0.3],[1,0.5],[1,0.7],[1,0.9]];align=left;spacingLeft=10;fontSize=14;" parent="5h32e7U5oIckj3QQvWM9-1" vertex="1">
          <mxGeometry x="583.71" y="910" width="228.15" height="30" as="geometry" />
        </mxCell>
        <mxCell id="XKsrdgscYancDlyGXlgI-0" value="mw-pm:supportsOperatingSystem" style="edgeStyle=orthogonalEdgeStyle;rounded=0;orthogonalLoop=1;jettySize=auto;html=1;exitX=0.5;exitY=1;exitDx=0;exitDy=0;entryX=0.5;entryY=0;entryDx=0;entryDy=0;strokeColor=default;align=center;verticalAlign=middle;fontFamily=Helvetica;fontSize=14;fontColor=default;labelBackgroundColor=default;endArrow=classic;" parent="5h32e7U5oIckj3QQvWM9-1" source="5h32e7U5oIckj3QQvWM9-27" target="5h32e7U5oIckj3QQvWM9-39" edge="1">
          <mxGeometry x="0.0104" y="14" relative="1" as="geometry">
            <mxPoint as="offset" />
          </mxGeometry>
        </mxCell>
        <mxCell id="5h32e7U5oIckj3QQvWM9-27" value="mw-pm:platformName: xsd:string" style="rounded=0;whiteSpace=wrap;html=1;snapToPoint=1;points=[[0.1,0],[0.2,0],[0.3,0],[0.4,0],[0.5,0],[0.6,0],[0.7,0],[0.8,0],[0.9,0],[0,0.1],[0,0.3],[0,0.5],[0,0.7],[0,0.9],[0.1,1],[0.2,1],[0.3,1],[0.4,1],[0.5,1],[0.6,1],[0.7,1],[0.8,1],[0.9,1],[1,0.1],[1,0.3],[1,0.5],[1,0.7],[1,0.9]];align=left;spacingLeft=10;fontSize=14;" parent="5h32e7U5oIckj3QQvWM9-1" vertex="1">
          <mxGeometry x="582.79" y="600" width="230" height="30" as="geometry" />
        </mxCell>
        <mxCell id="5h32e7U5oIckj3QQvWM9-28" value="mw-pm:Platform" style="rounded=0;whiteSpace=wrap;html=1;snapToPoint=1;points=[[0.1,0],[0.2,0],[0.3,0],[0.4,0],[0.5,0],[0.6,0],[0.7,0],[0.8,0],[0.9,0],[0,0.1],[0,0.3],[0,0.5],[0,0.7],[0,0.9],[0.1,1],[0.2,1],[0.3,1],[0.4,1],[0.5,1],[0.6,1],[0.7,1],[0.8,1],[0.9,1],[1,0.1],[1,0.3],[1,0.5],[1,0.7],[1,0.9]];fillColor=#e1d5e7;strokeColor=#000000;fontSize=14;align=center;verticalAlign=middle;fontFamily=Helvetica;" parent="5h32e7U5oIckj3QQvWM9-1" vertex="1">
          <mxGeometry x="582.79" y="570" width="230" height="30" as="geometry" />
        </mxCell>
        <mxCell id="5h32e7U5oIckj3QQvWM9-29" value="mw-pm:Vendor" style="rounded=0;whiteSpace=wrap;html=1;snapToPoint=1;points=[[0.1,0],[0.2,0],[0.3,0],[0.4,0],[0.5,0],[0.6,0],[0.7,0],[0.8,0],[0.9,0],[0,0.1],[0,0.3],[0,0.5],[0,0.7],[0,0.9],[0.1,1],[0.2,1],[0.3,1],[0.4,1],[0.5,1],[0.6,1],[0.7,1],[0.8,1],[0.9,1],[1,0.1],[1,0.3],[1,0.5],[1,0.7],[1,0.9]];fillColor=#e1d5e7;strokeColor=#000000;fontSize=14;align=center;verticalAlign=middle;fontFamily=Helvetica;" parent="5h32e7U5oIckj3QQvWM9-1" vertex="1">
          <mxGeometry x="583.71" y="880" width="228.15" height="30" as="geometry" />
        </mxCell>
        <mxCell id="5h32e7U5oIckj3QQvWM9-34" value="mw-pm:osName: xsd:string&lt;div&gt;mw-pm:osVersion: xsd:string&lt;/div&gt;" style="rounded=0;whiteSpace=wrap;html=1;snapToPoint=1;points=[[0.1,0],[0.2,0],[0.3,0],[0.4,0],[0.5,0],[0.6,0],[0.7,0],[0.8,0],[0.9,0],[0,0.1],[0,0.3],[0,0.5],[0,0.7],[0,0.9],[0.1,1],[0.2,1],[0.3,1],[0.4,1],[0.5,1],[0.6,1],[0.7,1],[0.8,1],[0.9,1],[1,0.1],[1,0.3],[1,0.5],[1,0.7],[1,0.9]];align=left;spacingLeft=10;fontSize=14;" parent="5h32e7U5oIckj3QQvWM9-1" vertex="1">
          <mxGeometry x="585.27" y="760" width="226.59" height="50" as="geometry" />
        </mxCell>
        <mxCell id="5h32e7U5oIckj3QQvWM9-35" value="mw-pm:vendor" style="edgeStyle=orthogonalEdgeStyle;rounded=0;orthogonalLoop=1;jettySize=auto;html=1;exitX=1;exitY=0.5;exitDx=0;exitDy=0;entryX=1;entryY=0.5;entryDx=0;entryDy=0;fontSize=14;startArrow=oval;startFill=0;" parent="5h32e7U5oIckj3QQvWM9-1" source="5h32e7U5oIckj3QQvWM9-28" target="5h32e7U5oIckj3QQvWM9-29" edge="1">
          <mxGeometry x="-0.0022" relative="1" as="geometry">
            <Array as="points">
              <mxPoint x="870" y="585" />
              <mxPoint x="870" y="895" />
            </Array>
            <mxPoint as="offset" />
          </mxGeometry>
        </mxCell>
        <mxCell id="5h32e7U5oIckj3QQvWM9-36" value="mw-pm:vendor" style="rounded=0;orthogonalLoop=1;jettySize=auto;html=1;exitX=0.5;exitY=1;exitDx=0;exitDy=0;fontSize=14;strokeColor=default;align=center;verticalAlign=middle;fontFamily=Helvetica;fontColor=default;labelBackgroundColor=default;startArrow=oval;startFill=0;endArrow=classic;entryX=0.5;entryY=0;entryDx=0;entryDy=0;" parent="5h32e7U5oIckj3QQvWM9-1" source="5h32e7U5oIckj3QQvWM9-34" target="5h32e7U5oIckj3QQvWM9-29" edge="1">
          <mxGeometry x="0.0074" relative="1" as="geometry">
            <mxPoint x="674.58" y="750" as="targetPoint" />
            <mxPoint as="offset" />
          </mxGeometry>
        </mxCell>
        <mxCell id="5h32e7U5oIckj3QQvWM9-39" value="mw-pm:OperatingSystem" style="rounded=0;whiteSpace=wrap;html=1;snapToPoint=1;points=[[0.1,0],[0.2,0],[0.3,0],[0.4,0],[0.5,0],[0.6,0],[0.7,0],[0.8,0],[0.9,0],[0,0.1],[0,0.3],[0,0.5],[0,0.7],[0,0.9],[0.1,1],[0.2,1],[0.3,1],[0.4,1],[0.5,1],[0.6,1],[0.7,1],[0.8,1],[0.9,1],[1,0.1],[1,0.3],[1,0.5],[1,0.7],[1,0.9]];fillColor=#e1d5e7;strokeColor=#000000;fontSize=14;align=center;verticalAlign=middle;fontFamily=Helvetica;" parent="5h32e7U5oIckj3QQvWM9-1" vertex="1">
          <mxGeometry x="585.27" y="730" width="226.59" height="30" as="geometry" />
        </mxCell>
        <mxCell id="5h32e7U5oIckj3QQvWM9-42" value="mw-pm:Router" style="rounded=0;whiteSpace=wrap;html=1;snapToPoint=1;points=[[0.1,0],[0.2,0],[0.3,0],[0.4,0],[0.5,0],[0.6,0],[0.7,0],[0.8,0],[0.9,0],[0,0.1],[0,0.3],[0,0.5],[0,0.7],[0,0.9],[0.1,1],[0.2,1],[0.3,1],[0.4,1],[0.5,1],[0.6,1],[0.7,1],[0.8,1],[0.9,1],[1,0.1],[1,0.3],[1,0.5],[1,0.7],[1,0.9]];fillColor=#e1d5e7;strokeColor=#000000;fontSize=14;align=center;verticalAlign=middle;fontFamily=Helvetica;" parent="5h32e7U5oIckj3QQvWM9-1" vertex="1">
          <mxGeometry x="243" y="640" width="202" height="30" as="geometry" />
        </mxCell>
        <mxCell id="NAosuNJHgY2YJT_NUB_j-0" value="&lt;div style=&quot;border-color: var(--border-color);&quot;&gt;&lt;b style=&quot;border-color: var(--border-color);&quot;&gt;&lt;/b&gt;&lt;b&gt;mw-pm&lt;/b&gt;:&amp;nbsp;&lt;span style=&quot;white-space: pre;&quot;&gt;&lt;font style=&quot;&quot;&gt;https://w3id.org/mouseworld/platform#&lt;/font&gt;&lt;/span&gt;&lt;/div&gt;&lt;div style=&quot;border-color: var(--border-color);&quot;&gt;&lt;div style=&quot;border-color: var(--border-color);&quot;&gt;&lt;b&gt;mw-topo&lt;/b&gt;:&amp;nbsp;&lt;span style=&quot;white-space: pre;&quot;&gt;https://w3id.org/mouseworld/topology#&lt;/span&gt;&lt;/div&gt;&lt;/div&gt;&lt;div style=&quot;border-color: var(--border-color);&quot;&gt;&lt;span style=&quot;background-color: initial; color: light-dark(rgb(0, 0, 0), rgb(255, 255, 255)); white-space: pre;&quot;&gt;&lt;b&gt;schema: &lt;/b&gt;&lt;/span&gt;&lt;span style=&quot;background-color: transparent; color: light-dark(rgb(0, 0, 0), rgb(255, 255, 255)); white-space: pre;&quot;&gt;http://schema.org/&lt;/span&gt;&lt;/div&gt;&lt;b style=&quot;border-color: var(--border-color);&quot;&gt;&lt;div style=&quot;&quot;&gt;&lt;/div&gt;&lt;/b&gt;" style="shape=note;whiteSpace=wrap;html=1;backgroundOutline=1;darkOpacity=0.05;size=13;align=left;spacingLeft=10;fontFamily=Helvetica;" parent="5h32e7U5oIckj3QQvWM9-1" vertex="1">
          <mxGeometry x="449.41" y="160" width="620.79" height="59.45" as="geometry" />
        </mxCell>
        <mxCell id="NAosuNJHgY2YJT_NUB_j-1" value="&lt;div&gt;&lt;b&gt;dcterms:title&lt;/b&gt;: &lt;span style=&quot;background-color: light-dark(rgb(255, 255, 255), rgb(18, 18, 18)); color: light-dark(rgb(0, 0, 0), rgb(237, 237, 237));&quot;&gt;&quot;The Mouseworld Ontology – Platform&lt;/span&gt;&lt;span style=&quot;background-color: light-dark(rgb(255, 255, 255), rgb(18, 18, 18)); color: light-dark(rgb(0, 0, 0), rgb(237, 237, 237));&quot;&gt;&quot;&lt;/span&gt;&lt;/div&gt;&lt;div&gt;&lt;b&gt;dcterms:created&lt;/b&gt;: &quot;2025-02-19&quot;^^xsd:date&lt;/div&gt;&lt;div&gt;&lt;b style=&quot;background-color: light-dark(rgb(255, 255, 255), rgb(18, 18, 18)); color: light-dark(rgb(0, 0, 0), rgb(237, 237, 237));&quot;&gt;dcterms:creator:&lt;/b&gt;&lt;span style=&quot;background-color: light-dark(rgb(255, 255, 255), rgb(18, 18, 18)); color: light-dark(rgb(0, 0, 0), rgb(237, 237, 237));&quot;&gt;&amp;nbsp;&quot;Ignacio Dominguez Martinez-Casanueva&quot;&lt;/span&gt;&lt;/div&gt;&lt;div&gt;&lt;div&gt;&lt;b&gt;dcterms:contributor: &quot;&lt;/b&gt;Lucia Cabanillas Rodriguez&quot;&lt;/div&gt;&lt;div&gt;&lt;b&gt;dcterms:contributor: &quot;&lt;/b&gt;Yenny Moreno Meneses&quot;&lt;/div&gt;&lt;div&gt;&lt;b&gt;dcterms:contributor: &quot;&lt;/b&gt;Javier Nuñez Fuente&quot;&lt;/div&gt;&lt;/div&gt;&lt;div&gt;&lt;b style=&quot;background-color: light-dark(rgb(255, 255, 255), rgb(18, 18, 18)); color: light-dark(rgb(0, 0, 0), rgb(237, 237, 237));&quot;&gt;dcterms:description:&amp;nbsp;&lt;/b&gt;&lt;span style=&quot;background-color: light-dark(rgb(255, 255, 255), rgb(18, 18, 18)); color: light-dark(rgb(0, 0, 0), rgb(237, 237, 237));&quot;&gt;&quot;MW Ontology module that represents network platform details of the digital twin.&quot;&lt;/span&gt;&lt;/div&gt;&lt;div&gt;&lt;div&gt;&lt;b&gt;dcterms:license:&amp;nbsp;&lt;/b&gt;&lt;span style=&quot;background-color: light-dark(rgb(255, 255, 255), rgb(18, 18, 18));&quot;&gt;&amp;lt;http://purl.org/NET/rdflicense/APACHE2.0&amp;gt;&lt;/span&gt;&lt;/div&gt;&lt;div&gt;&lt;span style=&quot;background-color: light-dark(rgb(255, 255, 255), rgb(18, 18, 18));&quot;&gt;&lt;b&gt;dcterms:publisher: &lt;/b&gt;&amp;lt;&lt;/span&gt;&lt;span style=&quot;background-color: light-dark(rgb(255, 255, 255), rgb(18, 18, 18));&quot;&gt;https://github.com/Mouseworld-Lab&amp;gt;&lt;/span&gt;&lt;/div&gt;&lt;div&gt;&lt;b&gt;owl:versionInfo&lt;/b&gt;: &quot;1.0.0&quot;&lt;br&gt;&lt;/div&gt;&lt;div&gt;&lt;b&gt;owl:versionIRI:&amp;nbsp;&lt;/b&gt;&amp;lt;https://w3id.org/mouseworld/platform&lt;span style=&quot;background-color: light-dark(rgb(255, 255, 255), rgb(18, 18, 18));&quot;&gt;&amp;gt;&lt;/span&gt;&lt;/div&gt;&lt;div&gt;&lt;b style=&quot;caret-color: rgb(0, 0, 0);&quot;&gt;owl:priorVersion:&lt;/b&gt;&lt;span style=&quot;caret-color: rgb(0, 0, 0);&quot;&gt;&amp;nbsp;&amp;lt;https://w3id.org/mouseworld/platform&amp;gt;&lt;/span&gt;&lt;span style=&quot;background-color: light-dark(rgb(255, 255, 255), rgb(18, 18, 18));&quot;&gt;&lt;br&gt;&lt;/span&gt;&lt;/div&gt;&lt;div&gt;&lt;span style=&quot;caret-color: rgb(0, 0, 0);&quot;&gt;&lt;div style=&quot;&quot;&gt;&lt;b style=&quot;background-color: light-dark(rgb(255, 255, 255), rgb(18, 18, 18)); color: light-dark(rgb(0, 0, 0), rgb(237, 237, 237));&quot;&gt;schema:codeRepository: &lt;/b&gt;&lt;span style=&quot;background-color: light-dark(rgb(255, 255, 255), rgb(18, 18, 18)); color: light-dark(rgb(0, 0, 0), rgb(237, 237, 237));&quot;&gt;&quot;https://github.com/Mouseworld-Lab/mouseworld-ontology&quot;&lt;/span&gt;&lt;span style=&quot;color: light-dark(rgb(0, 0, 0), rgb(237, 237, 237)); background-color: rgb(249, 249, 249); text-align: justify;&quot;&gt;^^xsd:anyURI&lt;/span&gt;&lt;/div&gt;&lt;/span&gt;&lt;/div&gt;&lt;div&gt;&lt;div style=&quot;caret-color: rgb(0, 0, 0);&quot;&gt;&lt;b&gt;vann:preferredNamespacePrefix:&lt;/b&gt;&amp;nbsp;&quot;mw-pm&quot;&lt;/div&gt;&lt;div style=&quot;caret-color: rgb(0, 0, 0);&quot;&gt;&lt;b&gt;vann:preferredNamespaceUri:&lt;/b&gt;&amp;nbsp;&amp;lt;https://w3id.org/mouseworld/platform#&amp;gt;&lt;/div&gt;&lt;div style=&quot;caret-color: rgb(0, 0, 0);&quot;&gt;&lt;br&gt;&lt;/div&gt;&lt;/div&gt;&lt;/div&gt;" style="shape=document;whiteSpace=wrap;html=1;boundedLbl=1;labelBackgroundColor=#ffffff;strokeColor=#000000;fontSize=12;fontColor=#000000;size=0.13333333333333333;align=left;spacingLeft=10;fontFamily=Helvetica;" parent="5h32e7U5oIckj3QQvWM9-1" vertex="1">
          <mxGeometry x="449.40999999999997" y="230" width="620.79" height="280" as="geometry" />
        </mxCell>
        <mxCell id="NAosuNJHgY2YJT_NUB_j-2" value="Legend" style="swimlane;whiteSpace=wrap;html=1;" parent="5h32e7U5oIckj3QQvWM9-1" vertex="1">
          <mxGeometry x="10" y="160" width="390" height="340" as="geometry">
            <mxRectangle x="330" y="370" width="80" height="30" as="alternateBounds" />
          </mxGeometry>
        </mxCell>
        <mxCell id="NAosuNJHgY2YJT_NUB_j-3" value="Datatype Property: datatype" style="rounded=0;whiteSpace=wrap;html=1;snapToPoint=1;points=[[0.1,0],[0.2,0],[0.3,0],[0.4,0],[0.5,0],[0.6,0],[0.7,0],[0.8,0],[0.9,0],[0,0.1],[0,0.3],[0,0.5],[0,0.7],[0,0.9],[0.1,1],[0.2,1],[0.3,1],[0.4,1],[0.5,1],[0.6,1],[0.7,1],[0.8,1],[0.9,1],[1,0.1],[1,0.3],[1,0.5],[1,0.7],[1,0.9]];" parent="NAosuNJHgY2YJT_NUB_j-2" vertex="1">
          <mxGeometry x="19" y="70" width="181" height="30" as="geometry" />
        </mxCell>
        <mxCell id="NAosuNJHgY2YJT_NUB_j-4" value="Class" style="rounded=0;whiteSpace=wrap;html=1;snapToPoint=1;points=[[0.1,0],[0.2,0],[0.3,0],[0.4,0],[0.5,0],[0.6,0],[0.7,0],[0.8,0],[0.9,0],[0,0.1],[0,0.3],[0,0.5],[0,0.7],[0,0.9],[0.1,1],[0.2,1],[0.3,1],[0.4,1],[0.5,1],[0.6,1],[0.7,1],[0.8,1],[0.9,1],[1,0.1],[1,0.3],[1,0.5],[1,0.7],[1,0.9]];" parent="NAosuNJHgY2YJT_NUB_j-2" vertex="1">
          <mxGeometry x="19" y="40" width="181" height="30" as="geometry" />
        </mxCell>
        <mxCell id="NAosuNJHgY2YJT_NUB_j-5" value="&lt;u&gt;Individual&lt;/u&gt;" style="rounded=0;whiteSpace=wrap;html=1;snapToPoint=1;points=[[0.1,0],[0.2,0],[0.3,0],[0.4,0],[0.5,0],[0.6,0],[0.7,0],[0.8,0],[0.9,0],[0,0.1],[0,0.3],[0,0.5],[0,0.7],[0,0.9],[0.1,1],[0.2,1],[0.3,1],[0.4,1],[0.5,1],[0.6,1],[0.7,1],[0.8,1],[0.9,1],[1,0.1],[1,0.3],[1,0.5],[1,0.7],[1,0.9]];" parent="NAosuNJHgY2YJT_NUB_j-2" vertex="1">
          <mxGeometry x="19" y="120" width="181" height="30" as="geometry" />
        </mxCell>
        <mxCell id="NAosuNJHgY2YJT_NUB_j-6" value="" style="endArrow=classic;html=1;exitX=1;exitY=0.5;exitDx=0;exitDy=0;endSize=8;arcSize=0;rounded=0;" parent="NAosuNJHgY2YJT_NUB_j-2" edge="1">
          <mxGeometry width="50" height="50" relative="1" as="geometry">
            <mxPoint x="19" y="170" as="sourcePoint" />
            <mxPoint x="200" y="170" as="targetPoint" />
          </mxGeometry>
        </mxCell>
        <mxCell id="NAosuNJHgY2YJT_NUB_j-7" value="Object Property" style="text;html=1;align=center;verticalAlign=middle;resizable=0;points=[];labelBackgroundColor=#ffffff;" parent="NAosuNJHgY2YJT_NUB_j-6" vertex="1" connectable="0">
          <mxGeometry x="-0.1269" relative="1" as="geometry">
            <mxPoint x="11" as="offset" />
          </mxGeometry>
        </mxCell>
        <mxCell id="NAosuNJHgY2YJT_NUB_j-8" value="" style="endArrow=block;html=1;fontColor=#000099;endFill=0;endSize=8;arcSize=0;rounded=0;" parent="NAosuNJHgY2YJT_NUB_j-2" edge="1">
          <mxGeometry width="50" height="50" relative="1" as="geometry">
            <mxPoint x="20" y="190" as="sourcePoint" />
            <mxPoint x="200" y="190" as="targetPoint" />
          </mxGeometry>
        </mxCell>
        <mxCell id="NAosuNJHgY2YJT_NUB_j-9" value="&lt;font style=&quot;font-size: 12px;&quot;&gt;rdfs:subClassOf&lt;/font&gt;" style="edgeLabel;html=1;align=center;verticalAlign=middle;resizable=0;points=[];" parent="NAosuNJHgY2YJT_NUB_j-8" vertex="1" connectable="0">
          <mxGeometry x="-0.1196" y="-1" relative="1" as="geometry">
            <mxPoint x="14" as="offset" />
          </mxGeometry>
        </mxCell>
        <mxCell id="NAosuNJHgY2YJT_NUB_j-10" value="" style="endArrow=open;html=1;fontColor=#000099;endFill=0;dashed=1;endSize=8;rounded=0;" parent="NAosuNJHgY2YJT_NUB_j-2" edge="1">
          <mxGeometry width="50" height="50" relative="1" as="geometry">
            <mxPoint x="20" y="210" as="sourcePoint" />
            <mxPoint x="200" y="210" as="targetPoint" />
          </mxGeometry>
        </mxCell>
        <mxCell id="NAosuNJHgY2YJT_NUB_j-11" value="&lt;font style=&quot;font-size: 12px;&quot;&gt;rdf:type&lt;/font&gt;" style="edgeLabel;html=1;align=center;verticalAlign=middle;resizable=0;points=[];" parent="NAosuNJHgY2YJT_NUB_j-10" vertex="1" connectable="0">
          <mxGeometry x="-0.0889" y="1" relative="1" as="geometry">
            <mxPoint x="8" as="offset" />
          </mxGeometry>
        </mxCell>
        <mxCell id="NAosuNJHgY2YJT_NUB_j-12" value="MW Topology" style="rounded=0;whiteSpace=wrap;html=1;fillColor=#D5E8D4;strokeColor=#000000;fontFamily=Helvetica;fontSize=13;" parent="NAosuNJHgY2YJT_NUB_j-2" vertex="1">
          <mxGeometry x="220" y="40.00000000000007" width="138.5" height="25" as="geometry" />
        </mxCell>
        <mxCell id="NAosuNJHgY2YJT_NUB_j-13" value="MW Platform" style="rounded=0;whiteSpace=wrap;html=1;fillColor=#E1D5E7;strokeColor=#000000;fontFamily=Helvetica;fontSize=13;" parent="NAosuNJHgY2YJT_NUB_j-2" vertex="1">
          <mxGeometry x="220" y="75.00000000000007" width="138.5" height="25" as="geometry" />
        </mxCell>
      </root>
    </mxGraphModel>
  </diagram>
</mxfile>
